<?xml version="1.0" standalone="no"?>
<!DOCTYPE svg PUBLIC "-//W3C//DTD SVG 20010904//EN"
 "http://www.w3.org/TR/2001/REC-SVG-20010904/DTD/svg10.dtd">
<svg version="1.0" xmlns="http://www.w3.org/2000/svg"
 width="500.000000pt" height="375.000000pt" viewBox="0 0 500.000000 375.000000"
 preserveAspectRatio="xMidYMid meet">

<g transform="translate(0.000000,375.000000) scale(0.100000,-0.100000)"
fill="#000000" stroke="none">
<path d="M0 1875 l0 -1875 2288 0 c2268 0 2289 0 2330 20 22 11 50 20 62 20
11 0 20 4 20 9 0 10 -29 3 -82 -18 -22 -8 -26 -8 -21 4 3 8 9 12 14 9 5 -3 9
-1 9 4 0 5 6 9 13 10 73 5 91 4 95 -6 2 -7 8 -9 13 -6 6 3 2 12 -8 20 -12 9
-36 12 -78 9 l-60 -4 49 9 c26 5 54 11 62 14 8 3 14 1 14 -4 0 -6 14 -10 30
-10 17 0 30 5 30 13 0 9 2 9 9 -1 4 -8 17 -12 27 -10 12 2 18 -2 17 -12 -2
-13 -1 -13 9 1 10 14 17 14 74 -2 35 -10 68 -20 74 -24 5 -3 10 -2 10 4 0 5
-8 12 -17 14 -17 4 -17 5 0 6 16 1 17 32 17 506 l0 505 -72 0 c-40 0 -149 -4
-243 -10 -93 -5 -235 -12 -315 -16 -80 -3 -203 -10 -275 -14 -327 -18 -925 2
-925 32 0 5 -4 7 -9 4 -5 -4 -11 -1 -13 4 -2 6 -10 12 -18 14 -32 5 -413 203
-418 217 -2 5 -10 9 -18 9 -8 0 -14 5 -14 10 0 6 -7 10 -15 10 -25 0 -65 22
-58 33 3 6 2 8 -3 5 -11 -7 -66 24 -67 37 -1 14 -21 34 -29 29 -9 -6 -48 33
-41 40 3 3 -3 9 -13 12 -38 14 -53 34 -44 60 6 14 6 26 0 29 -17 11 2 34 33
40 18 4 70 18 116 32 62 19 97 24 133 20 29 -4 68 0 100 9 33 10 116 17 218
21 91 3 171 10 177 15 27 22 147 -30 162 -70 8 -23 10 -19 10 31 1 54 0 57
-18 47 -33 -17 -71 -11 -96 15 -21 20 -25 34 -25 80 0 59 19 109 45 119 28 10
60 7 83 -10 19 -13 22 -13 22 0 0 8 10 16 23 18 12 3 -12 4 -53 3 -41 -1 -90
-8 -107 -16 -30 -12 -34 -12 -47 6 -8 11 -13 22 -11 26 2 3 -10 3 -27 1 -19
-3 -33 1 -39 9 -7 11 -9 11 -9 -2 0 -13 -15 -17 -69 -22 -38 -3 -94 -3 -124 0
-33 3 -57 1 -61 -5 -4 -7 -24 -5 -61 4 -74 20 -126 6 -181 -47 -45 -44 -50
-43 -73 26 -32 94 -71 115 -138 74 -31 -20 -39 -20 -90 -10 -31 6 -75 11 -98
11 -38 0 -77 11 -140 40 -11 5 -33 11 -50 14 -68 9 -105 19 -105 26 0 5 -10
12 -22 16 -13 3 -30 12 -38 19 -8 8 -18 14 -23 14 -4 0 -15 4 -23 9 -12 7 -13
11 -5 17 9 5 6 11 -8 22 -12 8 -21 25 -21 38 0 15 -7 26 -20 30 -22 7 -27 25
-7 25 9 0 9 2 -1 9 -14 9 -13 32 3 43 6 5 4 8 -5 8 -10 0 -15 10 -15 30 0 17
3 30 6 30 5 0 4 48 -2 76 -1 5 0 12 1 17 6 19 5 33 -5 39 -7 5 -7 8 1 8 7 0
10 50 10 150 l-1 151 39 10 c345 93 702 153 1161 194 176 16 187 19 510 112
471 135 802 236 940 286 177 65 414 178 535 255 14 9 28 16 31 15 4 -1 15 7
24 17 18 20 1 20 -2478 20 l-2497 0 0 -1875z m1254 135 c27 -1 38 -17 27 -39
-10 -18 -17 -20 -56 -14 -35 4 -50 2 -64 -12 -28 -24 -36 -85 -17 -128 17 -42
46 -53 100 -39 35 10 36 10 36 -18 0 -25 -5 -30 -36 -36 -55 -10 -105 2 -138
35 -25 25 -30 40 -34 89 -6 80 17 128 72 153 25 12 53 17 70 14 16 -3 34 -5
40 -5z m1227 -115 l-3 -115 61 0 61 0 0 -30 0 -30 -90 0 -90 0 0 145 0 145 33
0 32 0 -4 -115z m-419 73 c2 -17 10 -22 33 -23 23 0 31 -5 33 -22 3 -20 -1
-23 -33 -23 l-36 0 3 -62 c3 -63 3 -63 36 -66 23 -2 32 -8 32 -22 0 -35 -78
-42 -110 -10 -16 16 -20 33 -20 90 0 56 -3 70 -15 70 -20 0 -19 26 0 34 8 3
20 17 27 31 14 31 45 33 50 3z m-684 -34 c8 -15 12 -15 33 -1 29 18 124 21
137 4 6 -7 19 -41 30 -76 l19 -64 25 74 c23 70 26 74 56 77 18 2 32 -1 32 -5
0 -26 -102 -269 -121 -289 -30 -32 -94 -31 -94 1 0 13 8 21 23 23 12 2 29 13
37 25 13 20 10 32 -27 125 -41 99 -58 123 -58 82 0 -15 -7 -20 -24 -20 -38 0
-56 -35 -56 -107 l0 -63 -30 0 -30 0 0 108 c0 60 3 112 7 115 11 12 32 7 41
-9z m416 1 c4 -13 9 -12 35 2 62 36 127 -26 118 -114 -8 -80 -57 -119 -119
-95 l-28 10 0 -54 c0 -53 0 -54 -30 -54 l-30 0 0 153 c0 85 3 157 7 160 12 12
41 7 47 -8z m535 -11 c56 -47 51 -158 -9 -189 -41 -21 -92 -19 -123 6 -63 48
-51 171 18 199 40 17 83 11 114 -16z m472 -3 c21 -22 29 -39 29 -65 l0 -36
-70 0 c-73 0 -79 -4 -56 -35 11 -15 22 -17 65 -12 49 6 51 5 51 -17 0 -13 -7
-27 -16 -30 -26 -10 -91 -7 -119 6 -70 32 -75 166 -8 202 46 25 90 20 124 -13z
m141 -6 l21 -36 24 36 c20 29 30 35 59 35 39 0 39 1 -8 -64 -15 -21 -28 -43
-28 -49 0 -5 16 -32 35 -58 19 -27 35 -51 35 -54 0 -3 -16 -5 -35 -5 -30 0
-39 5 -56 35 -23 39 -32 38 -54 -6 -13 -24 -22 -29 -50 -29 -19 0 -35 2 -35 5
0 3 16 30 36 60 l36 54 -36 51 c-20 27 -36 52 -36 55 0 3 16 5 35 5 30 0 39
-5 57 -35z m228 -80 l0 -115 -30 0 -30 0 0 115 0 115 30 0 30 0 0 -115z m1787
-1761 c-3 -3 -12 -4 -19 -1 -8 3 -5 6 6 6 11 1 17 -2 13 -5z"/>
<path d="M1824 1892 c-32 -21 -27 -107 7 -117 31 -10 49 12 49 59 0 55 -24 80
-56 58z"/>
<path d="M2236 1887 c-13 -9 -17 -24 -14 -56 6 -82 70 -83 76 -2 5 62 -22 87
-62 58z"/>
<path d="M2700 1881 c-10 -20 -8 -21 30 -21 34 0 41 3 38 18 -5 26 -54 28 -68
3z"/>
<path d="M3823 1953 c9 -2 25 -2 35 0 9 3 1 5 -18 5 -19 0 -27 -2 -17 -5z"/>
<path d="M3755 1925 c-38 -30 -52 -31 -58 -2 -2 12 -5 -27 -5 -88 0 -60 2
-103 5 -95 11 28 27 29 56 4 34 -29 62 -37 108 -31 28 3 26 4 -13 5 -37 2 -55
8 -80 31 -30 27 -33 35 -33 86 0 51 3 59 33 86 39 35 29 39 -13 4z"/>
<path d="M3433 1790 c0 -85 2 -139 4 -119 2 20 12 44 23 54 17 15 21 15 42 1
16 -11 46 -14 103 -13 44 1 70 3 57 5 -13 2 -26 10 -29 18 -4 11 -7 11 -20 -1
-8 -8 -32 -15 -53 -15 -61 0 -80 32 -81 139 -1 47 -3 78 -6 69 -2 -10 -11 -18
-18 -18 -7 0 -16 8 -18 18 -3 9 -4 -53 -4 -138z"/>
<path d="M3900 1936 c0 -2 8 -10 18 -17 15 -13 16 -12 3 4 -13 16 -21 21 -21
13z"/>
<path d="M3551 1857 c-1 -64 2 -79 15 -84 36 -13 49 10 50 88 1 41 -1 60 -3
42 -7 -53 -48 -52 -56 2 -2 17 -5 -5 -6 -48z"/>
<path d="M3302 1892 c-18 -12 -26 -75 -12 -101 8 -16 19 -21 38 -19 25 3 27 7
30 51 4 64 -19 92 -56 69z"/>
<path d="M3806 1884 c-9 -24 -9 -24 34 -24 41 0 49 7 28 28 -17 17 -55 15 -62
-4z"/>
<path d="M3800 1807 c0 -33 64 -50 100 -27 13 8 13 10 1 10 -11 0 -9 4 5 15
17 13 14 14 -43 15 -45 0 -63 -4 -63 -13z"/>
</g>
</svg>
